<svg width="68" height="69" viewBox="0 0 68 69" fill="none" xmlns="http://www.w3.org/2000/svg">
<path d="M13.6191 66.6132V42.7084C13.6191 41.5961 14.5168 40.6984 15.6291 40.6984H52.1791C53.2718 40.6984 54.189 41.5961 54.189 42.7084V66.5937" stroke="black" stroke-width="2" stroke-miterlimit="22.9256" stroke-linecap="round" stroke-linejoin="round"/>
<path d="M42.0693 19.6038C40.8008 24.1896 37.3273 27.546 34.0489 27.7021C30.7511 27.5265 27.2775 24.1701 26.0091 19.5452L25.3847 19.6428C24.6822 19.7599 24.0187 19.2525 23.9016 18.511L23.2967 14.4325C23.1796 13.691 23.6674 13.008 24.3699 12.8909L24.8188 12.8129C24.6236 12.1689 24.5065 11.4859 24.5065 10.7834V9.28081C24.5065 5.61215 27.3946 2.58746 30.9267 2.58746H31.6877C31.6877 2.47038 31.6877 2.33378 31.7268 2.23621C32.1171 1.14342 34.7515 1.18245 37.62 2.31426C38.225 2.54843 38.7909 2.82163 39.3178 3.11434C41.6399 4.12908 43.2791 6.5098 43.2791 9.28081V10.7834C43.2791 11.4859 43.1816 12.1689 42.9669 12.8129L43.4157 12.8909C44.1182 13.008 44.6061 13.691 44.489 14.4325L43.8841 18.511C43.767 19.2525 43.1035 19.7404 42.401 19.6428L42.0693 19.6038Z" stroke="black" stroke-width="2" stroke-miterlimit="22.9256" stroke-linecap="round" stroke-linejoin="round"/>
<path d="M26.4199 29.9072L26.2833 29.9267C24.0001 31.5854 16.9165 33.1855 15.0236 33.5758C13.2088 33.9661 11.2183 34.8247 10.3402 36.7566L1.71497 55.4512C0.914891 57.2074 2.1638 59.2954 3.25659 60.2126L11.4135 67.1987" stroke="black" stroke-width="2" stroke-miterlimit="22.9256" stroke-linecap="round" stroke-linejoin="round"/>
<path d="M41.4062 29.9072L41.5428 29.9267C43.826 31.5854 50.9096 33.1855 52.8025 33.5758C54.6173 33.9661 56.6078 34.8247 57.4859 36.7566L66.0916 55.4512C66.8917 57.2074 65.6428 59.2954 64.55 60.2126L56.3931 67.1791" stroke="black" stroke-width="2" stroke-miterlimit="22.9256" stroke-linecap="round" stroke-linejoin="round"/>
<path d="M30.5371 13.379V14.3938" stroke="black" stroke-width="2" stroke-miterlimit="22.9256" stroke-linecap="round" stroke-linejoin="round"/>
<path d="M37.0938 13.379V14.3938" stroke="black" stroke-width="2" stroke-miterlimit="22.9256" stroke-linecap="round" stroke-linejoin="round"/>
<path d="M35.5926 20.6183C34.5388 21.4575 32.9192 21.4575 32.041 20.6183" stroke="black" stroke-width="2" stroke-miterlimit="22.9256" stroke-linecap="round" stroke-linejoin="round"/>
<path d="M43.0073 12.1686C42.7536 10.8026 40.6656 7.23156 37.9531 6.66565C33.3868 12.0711 26.1275 4.83132 24.5664 11.6027" stroke="black" stroke-width="2" stroke-miterlimit="22.9256" stroke-linecap="round" stroke-linejoin="round"/>
</svg>
