<svg width="59" height="59" viewBox="0 0 59 59" fill="none" xmlns="http://www.w3.org/2000/svg">
<path d="M31.2574 27.804C32.6854 27.216 34.2646 27.8544 34.8862 29.1817L38.0111 35.9522C38.2967 35.297 38.8343 34.7257 39.5735 34.4233C40.8839 33.8857 42.3455 34.3561 43.0344 35.465C43.2528 34.6585 43.8576 33.9361 44.7312 33.5665C46.0416 33.0289 47.5032 33.4993 48.1752 34.6081C48.3936 33.8017 48.9985 33.0793 49.8721 32.7097C51.3001 32.1217 53.0137 32.7097 53.5009 34.0873L57.0458 44.2347C59.9354 52.4836 49.6369 61.1862 41.9255 56.1965L28.5525 47.5443C27.3093 46.7379 27.0069 45.0579 27.9141 43.8315C29.3421 43.2435 32.1478 43.2771 33.4078 44.0835L35.9446 45.7299L29.6614 31.3489C29.0733 30.0049 29.8294 28.4088 31.2574 27.804Z" stroke="black" stroke-width="2" stroke-miterlimit="22.9256" stroke-linecap="round" stroke-linejoin="round"/>
<path d="M8.375 21.2348L10.4078 23.8725L14.5575 18.5132" stroke="black" stroke-width="2" stroke-miterlimit="22.9256" stroke-linecap="round" stroke-linejoin="round"/>
<path d="M19.1621 21.7394H32.4847" stroke="black" stroke-width="2" stroke-miterlimit="22.9256" stroke-linecap="round" stroke-linejoin="round"/>
<path d="M8.375 29.702L10.4078 32.3564L14.5575 26.9803" stroke="black" stroke-width="2" stroke-miterlimit="22.9256" stroke-linecap="round" stroke-linejoin="round"/>
<path d="M19.1621 30.2065H29.4775" stroke="black" stroke-width="2" stroke-miterlimit="22.9256" stroke-linecap="round" stroke-linejoin="round"/>
<path d="M8.32617 38.1195L10.359 40.7572L14.4919 35.3979" stroke="black" stroke-width="2" stroke-miterlimit="22.9256" stroke-linecap="round" stroke-linejoin="round"/>
<path d="M19.1121 38.6231H32.4347M7.57031 10.2642H20.8929" stroke="black" stroke-width="2" stroke-miterlimit="22.9256" stroke-linecap="round" stroke-linejoin="round"/>
<path d="M26.6543 1.27637H3.28517C2.19315 1.27637 1.30273 2.16678 1.30273 3.2588V51.358C1.30273 52.45 2.19315 53.3404 3.28517 53.3404H20.4382H37.5913" stroke="black" stroke-width="2" stroke-miterlimit="22.9256" stroke-linecap="round" stroke-linejoin="round"/>
<path d="M39.5566 33.4655V14.1788" stroke="black" stroke-width="2" stroke-miterlimit="22.9256" stroke-linecap="round" stroke-linejoin="round"/>
<path d="M39.5561 14.179H28.6192C27.5271 14.179 26.6367 13.2886 26.6367 12.1965V1.27637L39.5561 14.179Z" stroke="black" stroke-width="2" stroke-miterlimit="22.9256" stroke-linecap="round" stroke-linejoin="round"/>
</svg>
