<svg width="287" height="287" viewBox="0 0 287 287" fill="none" xmlns="http://www.w3.org/2000/svg">
<circle cx="4.62903" cy="4.62903" r="4.12903" stroke="black"/>
<circle cx="32.4025" cy="4.62903" r="4.12903" stroke="black"/>
<circle cx="60.1779" cy="4.62903" r="4.12903" stroke="black"/>
<circle cx="87.9513" cy="4.62903" r="4.12903" stroke="black"/>
<circle cx="115.727" cy="4.62903" r="4.12903" stroke="black"/>
<circle cx="143.5" cy="4.62903" r="4.12903" stroke="black"/>
<circle cx="171.274" cy="4.62903" r="4.12903" stroke="black"/>
<circle cx="199.049" cy="4.62903" r="4.12903" stroke="black"/>
<circle cx="226.824" cy="4.62903" r="4.12903" stroke="black"/>
<circle cx="254.598" cy="4.62903" r="4.12903" stroke="black"/>
<circle cx="282.371" cy="4.62903" r="4.12903" stroke="black"/>
<circle cx="4.62903" cy="32.4034" r="4.12903" stroke="black"/>
<circle cx="32.4025" cy="32.4034" r="4.12903" stroke="black"/>
<circle cx="60.1779" cy="32.4034" r="4.12903" stroke="black"/>
<circle cx="87.9513" cy="32.4034" r="4.12903" stroke="black"/>
<circle cx="115.727" cy="32.4034" r="4.12903" stroke="black"/>
<circle cx="143.5" cy="32.4034" r="4.12903" stroke="black"/>
<circle cx="171.274" cy="32.4034" r="4.12903" stroke="black"/>
<circle cx="199.049" cy="32.4034" r="4.12903" stroke="black"/>
<circle cx="226.824" cy="32.4034" r="4.12903" stroke="black"/>
<circle cx="254.598" cy="32.4034" r="4.12903" stroke="black"/>
<circle cx="282.371" cy="32.4034" r="4.12903" stroke="black"/>
<circle cx="4.62903" cy="60.1775" r="4.12903" stroke="black"/>
<circle cx="32.4025" cy="60.1775" r="4.12903" stroke="black"/>
<circle cx="60.1779" cy="60.1775" r="4.12903" stroke="black"/>
<circle cx="87.9513" cy="60.1775" r="4.12903" stroke="black"/>
<circle cx="115.727" cy="60.1775" r="4.12903" stroke="black"/>
<circle cx="143.5" cy="60.1775" r="4.12903" stroke="black"/>
<circle cx="171.274" cy="60.1775" r="4.12903" stroke="black"/>
<circle cx="199.049" cy="60.1775" r="4.12903" stroke="black"/>
<circle cx="226.824" cy="60.1775" r="4.12903" stroke="black"/>
<circle cx="254.598" cy="60.1775" r="4.12903" stroke="black"/>
<circle cx="282.371" cy="60.1775" r="4.12903" stroke="black"/>
<circle cx="4.62903" cy="87.9518" r="4.12903" stroke="black"/>
<circle cx="32.4025" cy="87.9518" r="4.12903" stroke="black"/>
<circle cx="60.1779" cy="87.9518" r="4.12903" stroke="black"/>
<circle cx="87.9513" cy="87.9518" r="4.12903" stroke="black"/>
<circle cx="115.727" cy="87.9518" r="4.12903" stroke="black"/>
<circle cx="143.5" cy="87.9518" r="4.12903" stroke="black"/>
<circle cx="171.274" cy="87.9518" r="4.12903" stroke="black"/>
<circle cx="199.049" cy="87.9518" r="4.12903" stroke="black"/>
<circle cx="226.824" cy="87.9518" r="4.12903" stroke="black"/>
<circle cx="254.598" cy="87.9518" r="4.12903" stroke="black"/>
<circle cx="282.371" cy="87.9518" r="4.12903" stroke="black"/>
<circle cx="4.62903" cy="115.726" r="4.12903" stroke="black"/>
<circle cx="32.4025" cy="115.726" r="4.12903" stroke="black"/>
<circle cx="60.1779" cy="115.726" r="4.12903" stroke="black"/>
<circle cx="87.9513" cy="115.726" r="4.12903" stroke="black"/>
<circle cx="115.727" cy="115.726" r="4.12903" stroke="black"/>
<circle cx="143.5" cy="115.726" r="4.12903" stroke="black"/>
<circle cx="171.274" cy="115.726" r="4.12903" stroke="black"/>
<circle cx="199.049" cy="115.726" r="4.12903" stroke="black"/>
<circle cx="226.824" cy="115.726" r="4.12903" stroke="black"/>
<circle cx="254.598" cy="115.726" r="4.12903" stroke="black"/>
<circle cx="282.371" cy="115.726" r="4.12903" stroke="black"/>
<circle cx="4.62903" cy="143.5" r="4.12903" stroke="black"/>
<circle cx="32.4025" cy="143.5" r="4.12903" stroke="black"/>
<circle cx="60.1779" cy="143.5" r="4.12903" stroke="black"/>
<circle cx="87.9513" cy="143.5" r="4.12903" stroke="black"/>
<circle cx="115.727" cy="143.5" r="4.12903" stroke="black"/>
<circle cx="143.5" cy="143.5" r="4.12903" stroke="black"/>
<circle cx="171.274" cy="143.5" r="4.12903" stroke="black"/>
<circle cx="199.049" cy="143.5" r="4.12903" stroke="black"/>
<circle cx="226.824" cy="143.5" r="4.12903" stroke="black"/>
<circle cx="254.598" cy="143.5" r="4.12903" stroke="black"/>
<circle cx="282.371" cy="143.5" r="4.12903" stroke="black"/>
<circle cx="4.62903" cy="171.275" r="4.12903" stroke="black"/>
<circle cx="32.4025" cy="171.275" r="4.12903" stroke="black"/>
<circle cx="60.1779" cy="171.275" r="4.12903" stroke="black"/>
<circle cx="87.9513" cy="171.275" r="4.12903" stroke="black"/>
<circle cx="115.727" cy="171.275" r="4.12903" stroke="black"/>
<circle cx="143.5" cy="171.274" r="4.12903" stroke="black"/>
<circle cx="171.274" cy="171.274" r="4.12903" stroke="black"/>
<circle cx="199.049" cy="171.274" r="4.12903" stroke="black"/>
<circle cx="226.824" cy="171.274" r="4.12903" stroke="black"/>
<circle cx="254.598" cy="171.274" r="4.12903" stroke="black"/>
<circle cx="282.371" cy="171.274" r="4.12903" stroke="black"/>
<circle cx="4.62903" cy="199.049" r="4.12903" stroke="black"/>
<circle cx="32.4025" cy="199.049" r="4.12903" stroke="black"/>
<circle cx="60.1779" cy="199.049" r="4.12903" stroke="black"/>
<circle cx="87.9513" cy="199.049" r="4.12903" stroke="black"/>
<circle cx="115.727" cy="199.049" r="4.12903" stroke="black"/>
<circle cx="143.5" cy="199.049" r="4.12903" stroke="black"/>
<circle cx="171.274" cy="199.049" r="4.12903" stroke="black"/>
<circle cx="199.049" cy="199.049" r="4.12903" stroke="black"/>
<circle cx="226.824" cy="199.049" r="4.12903" stroke="black"/>
<circle cx="254.598" cy="199.049" r="4.12903" stroke="black"/>
<circle cx="282.371" cy="199.049" r="4.12903" stroke="black"/>
<circle cx="4.62903" cy="226.823" r="4.12903" stroke="black"/>
<circle cx="32.4025" cy="226.823" r="4.12903" stroke="black"/>
<circle cx="60.1779" cy="226.823" r="4.12903" stroke="black"/>
<circle cx="87.9513" cy="226.823" r="4.12903" stroke="black"/>
<circle cx="115.727" cy="226.823" r="4.12903" stroke="black"/>
<circle cx="143.5" cy="226.823" r="4.12903" stroke="black"/>
<circle cx="171.274" cy="226.823" r="4.12903" stroke="black"/>
<circle cx="199.049" cy="226.823" r="4.12903" stroke="black"/>
<circle cx="226.824" cy="226.823" r="4.12903" stroke="black"/>
<circle cx="254.598" cy="226.823" r="4.12903" stroke="black"/>
<circle cx="282.371" cy="226.823" r="4.12903" stroke="black"/>
<circle cx="4.62903" cy="254.597" r="4.12903" stroke="black"/>
<circle cx="32.4025" cy="254.597" r="4.12903" stroke="black"/>
<circle cx="60.1779" cy="254.597" r="4.12903" stroke="black"/>
<circle cx="87.9513" cy="254.597" r="4.12903" stroke="black"/>
<circle cx="115.727" cy="254.597" r="4.12903" stroke="black"/>
<circle cx="143.5" cy="254.597" r="4.12903" stroke="black"/>
<circle cx="171.274" cy="254.597" r="4.12903" stroke="black"/>
<circle cx="199.049" cy="254.597" r="4.12903" stroke="black"/>
<circle cx="226.824" cy="254.597" r="4.12903" stroke="black"/>
<circle cx="254.598" cy="254.597" r="4.12903" stroke="black"/>
<circle cx="282.371" cy="254.597" r="4.12903" stroke="black"/>
<circle cx="4.62903" cy="282.371" r="4.12903" stroke="black"/>
<circle cx="32.4025" cy="282.371" r="4.12903" stroke="black"/>
<circle cx="60.1779" cy="282.371" r="4.12903" stroke="black"/>
<circle cx="87.9513" cy="282.371" r="4.12903" stroke="black"/>
<circle cx="115.727" cy="282.371" r="4.12903" stroke="black"/>
<circle cx="143.5" cy="282.371" r="4.12903" stroke="black"/>
<circle cx="171.274" cy="282.371" r="4.12903" stroke="black"/>
<circle cx="199.049" cy="282.371" r="4.12903" stroke="black"/>
<circle cx="226.824" cy="282.371" r="4.12903" stroke="black"/>
<circle cx="254.598" cy="282.371" r="4.12903" stroke="black"/>
<circle cx="282.371" cy="282.371" r="4.12903" stroke="black"/>
</svg>
