<svg width="64" height="63" viewBox="0 0 64 63" fill="none" xmlns="http://www.w3.org/2000/svg">
<path d="M8.97082 28.3178C9.04419 24.3926 8.36554 20.339 9.63114 17.8812M9.63114 17.8812L4.12853 15.6985C3.04635 15.2766 2.9363 13.7175 3.89008 13.3324L31.128 1.97864C32.0818 1.57512 33.4391 1.70351 34.5396 2.14372L61.2823 13.1489C62.3644 13.5891 62.4378 15.1482 61.5207 15.5151L34.2828 26.8688C33.3474 27.254 31.9534 27.1439 30.8712 26.7037L9.63114 17.8812ZM9.63114 17.8812L32.3752 13.7359" stroke="black" stroke-width="2" stroke-miterlimit="22.9256" stroke-linecap="round" stroke-linejoin="round"/>
<path d="M8.40289 37.1585C8.29284 45.1923 12.4932 49.3743 6.99056 54.455L1.96484 50.7133C5.5232 48.6773 8.29284 43.8717 8.40289 37.1585Z" stroke="black" stroke-width="2" stroke-miterlimit="22.9256" stroke-linecap="round" stroke-linejoin="round"/>
<path d="M49.9297 21.3662V27.4558C49.9297 32.0413 42.3544 35.7464 33 35.7464" stroke="black" stroke-width="2" stroke-miterlimit="22.9256" stroke-linecap="round" stroke-linejoin="round"/>
<path d="M33 35.7462C23.6456 35.7462 16.0703 32.0227 16.0703 27.4556V21.8613" stroke="black" stroke-width="2" stroke-miterlimit="22.9256" stroke-linecap="round" stroke-linejoin="round"/>
<path d="M8.76922 30.2983C10.3283 30.2983 11.5756 31.5639 11.5756 33.1047C11.5756 34.6454 10.31 35.911 8.76922 35.911C7.22849 35.911 5.96289 34.6454 5.96289 33.1047C5.96289 31.5639 7.21015 30.2983 8.76922 30.2983Z" stroke="black" stroke-width="2" stroke-miterlimit="22.9256" stroke-linecap="round" stroke-linejoin="round"/>
<path d="M17.3178 31.913C15.3735 34.8844 14.2363 38.4244 14.2363 42.2395C14.2363 52.6211 22.6553 61.0401 33.0369 61.0401C43.4185 61.0401 51.8375 52.6211 51.8375 42.2395C51.8375 38.4244 50.7003 34.8844 48.756 31.913" stroke="black" stroke-width="2" stroke-miterlimit="22.9256" stroke-linecap="round" stroke-linejoin="round"/>
<path d="M33.0547 61.0584V37.4338" stroke="black" stroke-width="2" stroke-miterlimit="22.9256" stroke-linecap="round" stroke-linejoin="round"/>
<path d="M14.2539 42.2212H51.8551" stroke="black" stroke-width="2" stroke-miterlimit="22.9256" stroke-linecap="round" stroke-linejoin="round"/>
<path d="M47.4711 53.5012C44.353 50.6949 39.0522 48.824 33.036 48.824C27.0381 48.824 21.7373 50.6765 18.6191 53.4828" stroke="black" stroke-width="2" stroke-miterlimit="22.9256" stroke-linecap="round" stroke-linejoin="round"/>
<path d="M24.3059 35.9667C23.7556 37.9477 23.4805 40.0203 23.4805 42.1847C23.4805 49.9067 27.2039 56.7116 32.8532 60.7101" stroke="black" stroke-width="2" stroke-miterlimit="22.9256" stroke-linecap="round" stroke-linejoin="round"/>
<path d="M42.0419 35.8749C42.5922 37.8742 42.904 40.0019 42.904 42.1846C42.904 49.9066 39.1806 56.7115 33.5312 60.71" stroke="black" stroke-width="2" stroke-miterlimit="22.9256" stroke-linecap="round" stroke-linejoin="round"/>
</svg>
