<svg width="155" height="33" viewBox="0 0 155 33" fill="none" xmlns="http://www.w3.org/2000/svg">
<path d="M3.88 7.3L6.68 4.34V16.56L5.28 14.8H16.16V19.6H5.28L6.68 17.84V30.16L3.88 27.2H18.38V32H0.44V2.5H18.38V7.3H3.88ZM30.5109 32.48C28.7376 32.48 27.1043 32.06 25.6109 31.22C24.1176 30.3667 22.9176 29.1067 22.0109 27.44C21.1043 25.7733 20.6509 23.72 20.6509 21.28C20.6509 18.9467 21.1109 16.9667 22.0309 15.34C22.9643 13.7133 24.1776 12.48 25.6709 11.64C27.1776 10.7867 28.7909 10.36 30.5109 10.36C32.1909 10.36 33.7243 10.7867 35.1109 11.64C36.5109 12.4933 37.6309 13.66 38.4709 15.14C39.3109 16.6067 39.7309 18.3 39.7309 20.22C39.7309 20.2867 39.7309 20.3533 39.7309 20.42C39.7309 20.4733 39.7309 20.5333 39.7309 20.6L37.0509 20.64C37.0509 20.6 37.0509 20.56 37.0509 20.52C37.0509 20.4667 37.0509 20.42 37.0509 20.38C37.0509 19.38 36.8109 18.52 36.3309 17.8C35.8509 17.08 35.2309 16.5267 34.4709 16.14C33.7109 15.74 32.9176 15.54 32.0909 15.54C30.7176 15.54 29.5309 16 28.5309 16.92C27.5309 17.8267 27.0309 19.28 27.0309 21.28C27.0309 23.28 27.5309 24.7533 28.5309 25.7C29.5443 26.6333 30.7309 27.1 32.0909 27.1C32.9443 27.1 33.7509 26.9 34.5109 26.5C35.2709 26.0867 35.8843 25.5067 36.3509 24.76C36.8176 24.0133 37.0509 23.1333 37.0509 22.12L39.7309 22.26C39.7309 24.1667 39.3176 25.8933 38.4909 27.44C37.6776 28.9733 36.5709 30.2 35.1709 31.12C33.7843 32.0267 32.2309 32.48 30.5109 32.48ZM37.0509 32V0.739998H43.2709V32H37.0509ZM55.5381 32.4C54.0315 32.4 52.7915 32.16 51.8181 31.68C50.8448 31.1867 50.0781 30.5267 49.5181 29.7C48.9581 28.8733 48.5648 27.9533 48.3381 26.94C48.1115 25.9267 47.9981 24.9 47.9981 23.86C47.9981 23.38 47.9981 22.8733 47.9981 22.34C47.9981 21.8067 47.9981 21.26 47.9981 20.7V10.76H54.1981V19.72C54.1981 20.1733 54.1981 20.6133 54.1981 21.04C54.1981 21.4667 54.1981 21.86 54.1981 22.22C54.1981 23.1133 54.2981 23.9333 54.4981 24.68C54.6981 25.4267 55.0648 26.0267 55.5981 26.48C56.1448 26.9333 56.9181 27.16 57.9181 27.16C58.8915 27.16 59.7181 26.8867 60.3981 26.34C61.0781 25.78 61.5981 25.0667 61.9581 24.2C62.3181 23.3333 62.4981 22.44 62.4981 21.52L64.2381 22.94C64.2381 24.2733 64.0315 25.5133 63.6181 26.66C63.2181 27.8067 62.6448 28.8133 61.8981 29.68C61.1515 30.5333 60.2381 31.2 59.1581 31.68C58.0915 32.16 56.8848 32.4 55.5381 32.4ZM62.4981 32V10.76H68.6981V32H62.4981Z" fill="#FF922E"/>
<path d="M73.3497 32V0.739998H79.2297V18.64L78.0097 18L86.1097 10.76H93.7097L83.1897 20.16L84.5097 17.8L93.5297 32H87.0097L80.4497 21.06L82.0297 21.18L78.5897 24.3L79.2297 21.64V32H73.3497ZM102.308 32.44C100.761 32.44 99.3808 32.1933 98.1675 31.7C96.9675 31.2067 96.0275 30.4933 95.3475 29.56C94.6675 28.6267 94.3275 27.4933 94.3275 26.16C94.3275 24.6533 94.7408 23.4267 95.5675 22.48C96.3942 21.5333 97.4875 20.8133 98.8475 20.32C100.221 19.8133 101.708 19.48 103.308 19.32C105.641 19.0933 107.248 18.8867 108.128 18.7C109.021 18.5133 109.468 18.1867 109.468 17.72C109.468 17.7067 109.468 17.6933 109.468 17.68C109.468 16.8933 109.088 16.2733 108.328 15.82C107.581 15.3667 106.534 15.14 105.188 15.14C103.761 15.14 102.668 15.4 101.908 15.92C101.161 16.4267 100.788 17.2067 100.788 18.26H94.6875C94.6875 16.5533 95.1475 15.1133 96.0675 13.94C97.0008 12.7667 98.2608 11.88 99.8475 11.28C101.434 10.6667 103.228 10.36 105.228 10.36C107.094 10.36 108.821 10.6467 110.408 11.22C111.994 11.78 113.268 12.6267 114.228 13.76C115.201 14.8933 115.688 16.3333 115.688 18.08C115.688 18.36 115.688 18.64 115.688 18.92C115.688 19.1867 115.688 19.46 115.688 19.74V27.26C115.688 27.8067 115.701 28.3333 115.728 28.84C115.768 29.3333 115.848 29.7867 115.968 30.2C116.101 30.6667 116.268 31.0533 116.468 31.36C116.668 31.6667 116.834 31.88 116.968 32H110.868C110.774 31.9067 110.628 31.7133 110.428 31.42C110.241 31.1267 110.081 30.7867 109.948 30.4C109.788 29.9333 109.668 29.4667 109.588 29C109.521 28.52 109.488 27.96 109.488 27.32L110.768 28.2C110.394 29.08 109.788 29.84 108.948 30.48C108.121 31.1067 107.134 31.5933 105.988 31.94C104.854 32.2733 103.628 32.44 102.308 32.44ZM103.968 27.8C104.941 27.8 105.848 27.6267 106.688 27.28C107.541 26.92 108.234 26.36 108.768 25.6C109.301 24.84 109.568 23.8467 109.568 22.62V20.48L111.108 21.98C110.228 22.3 109.208 22.5667 108.048 22.78C106.901 22.98 105.754 23.14 104.608 23.26C103.248 23.3933 102.228 23.6267 101.548 23.96C100.881 24.28 100.548 24.8267 100.548 25.6C100.548 26.3333 100.834 26.8867 101.408 27.26C101.981 27.62 102.834 27.8 103.968 27.8ZM120.225 32V10.76H126.445V18.08L125.165 17.28C125.311 16.28 125.578 15.36 125.965 14.52C126.351 13.68 126.851 12.9533 127.465 12.34C128.078 11.7133 128.805 11.2267 129.645 10.88C130.498 10.5333 131.471 10.36 132.565 10.36C133.418 10.36 134.085 10.4267 134.565 10.56C135.058 10.68 135.365 10.7733 135.485 10.84L134.465 16.4C134.345 16.3333 134.078 16.2267 133.665 16.08C133.251 15.9333 132.718 15.86 132.065 15.86C130.998 15.86 130.105 16.04 129.385 16.4C128.665 16.76 128.085 17.24 127.645 17.84C127.218 18.4267 126.911 19.08 126.725 19.8C126.538 20.52 126.445 21.2467 126.445 21.98V32H120.225ZM149.063 32.44C148.25 32.44 147.41 32.3667 146.543 32.22C145.69 32.0867 144.89 31.8133 144.143 31.4C143.41 30.9733 142.816 30.3533 142.363 29.54C141.91 28.7267 141.683 27.6533 141.683 26.32C141.683 26.0267 141.683 25.7267 141.683 25.42C141.683 25.1133 141.683 24.8067 141.683 24.5V15.56H136.783V10.76H138.163C138.963 10.76 139.596 10.7267 140.063 10.66C140.543 10.5933 140.896 10.4267 141.123 10.16C141.363 9.88 141.516 9.44667 141.583 8.86C141.65 8.27333 141.683 7.46666 141.683 6.44V3.76H147.903V10.76H154.083V15.56H147.903V23.2C147.903 23.44 147.903 23.6733 147.903 23.9C147.903 24.1267 147.903 24.3467 147.903 24.56C147.903 25.48 148.01 26.2267 148.223 26.8C148.45 27.3733 149.003 27.66 149.883 27.66C150.323 27.66 150.736 27.62 151.123 27.54C151.523 27.46 151.823 27.38 152.023 27.3V31.96C151.743 32.08 151.35 32.1867 150.843 32.28C150.336 32.3867 149.743 32.44 149.063 32.44Z" fill="#403685"/>
</svg>
