<svg width="399" height="56" viewBox="0 0 399 56" fill="none" xmlns="http://www.w3.org/2000/svg">
<path d="M178.961 0H6.7841C3.03735 0 0 3.06939 0 6.85568V48.8436C0 52.6299 3.03735 55.6993 6.7841 55.6993H178.961C182.708 55.6993 185.745 52.6299 185.745 48.8436V6.85568C185.745 3.06939 182.708 0 178.961 0Z" fill="url(#paint0_linear_603_474)"/>
<path d="M178.647 1.26514H7.10029C3.92644 1.26514 1.35352 3.8652 1.35352 7.07255V48.6298C1.35352 51.8371 3.92644 54.4372 7.10029 54.4372H178.647C181.821 54.4372 184.394 51.8371 184.394 48.6298V7.07255C184.394 3.8652 181.821 1.26514 178.647 1.26514Z" fill="black"/>
<path d="M38.7755 33.6438C38.3059 34.7149 37.7514 35.7003 37.1064 36.6056C36.2294 37.8407 35.5108 38.6964 34.9582 39.171C34.1 39.9506 33.1815 40.3489 32.197 40.3718C31.4897 40.3718 30.6373 40.1736 29.6452 39.7695C28.6494 39.3692 27.7346 39.1691 26.8991 39.1691C26.0636 39.1691 25.081 39.3673 24.0757 39.7695C23.0686 40.1716 22.2557 40.3832 21.6352 40.4023C20.6903 40.4423 19.751 40.0325 18.8118 39.1691C18.212 38.6526 17.4632 37.7682 16.5636 36.5141C15.5998 35.1743 14.8077 33.6228 14.1872 31.8522C13.5233 29.9405 13.1895 28.088 13.1895 26.2964C13.1895 24.2437 13.6383 22.4711 14.538 20.9883C15.2452 19.7952 16.1864 18.8556 17.3633 18.1656C18.5402 17.4757 19.8132 17.1231 21.1844 17.1002C21.935 17.1002 22.9177 17.3289 24.1398 17.7787C25.3582 18.2304 26.1409 18.4591 26.4842 18.4591C26.7407 18.4591 27.6101 18.1904 29.0831 17.6567C30.4769 17.1612 31.6519 16.9572 32.6157 17.0373C35.226 17.245 37.1875 18.2609 38.4926 20.0925C36.1577 21.4896 35.0034 23.447 35.0261 25.9571C35.0468 27.9126 35.7654 29.5384 37.1762 30.8306C37.8155 31.431 38.5303 31.8941 39.3244 32.222C39.1527 32.7156 38.9698 33.1883 38.7774 33.6419L38.7755 33.6438ZM32.7892 10.3779C32.7892 11.9103 32.2215 13.3417 31.0918 14.6663C29.7282 16.2406 28.0779 17.1497 26.2899 17.0068C26.2673 16.8238 26.2541 16.6294 26.2541 16.4255C26.2541 14.9541 26.9029 13.3798 28.0534 12.0933C28.6286 11.4414 29.3604 10.9002 30.2468 10.4675C31.1314 10.0425 31.9688 9.80614 32.7553 9.76611C32.7779 9.97005 32.7873 10.1759 32.7873 10.3798L32.7892 10.3779Z" fill="white"/>
<path d="M70.3643 41.6163H67.3183L65.6492 36.4378H59.8477L58.2578 41.6163H55.291L61.0378 23.9844H64.5873L70.3624 41.6163H70.3643ZM65.1456 34.265L63.6368 29.6603C63.4764 29.1895 63.1785 28.0822 62.7371 26.3382H62.6843C62.5089 27.0873 62.226 28.1965 61.8356 29.6603L60.3532 34.265H65.1475H65.1456Z" fill="white"/>
<path d="M85.145 35.1047C85.145 37.266 84.5528 38.9757 83.3703 40.2317C82.3103 41.3486 80.9938 41.907 79.4228 41.907C77.7272 41.907 76.5088 41.3047 75.7676 40.1021H75.7148V46.7996H72.8537V33.0901C72.8537 31.7312 72.8178 30.336 72.748 28.9047H75.264L75.4243 30.9193H75.4772C76.4315 29.4002 77.8781 28.6436 79.8207 28.6436C81.339 28.6436 82.6064 29.2363 83.6211 30.4218C84.6377 31.6092 85.145 33.1702 85.145 35.1047ZM82.2311 35.2076C82.2311 33.9707 81.9501 32.9491 81.3824 32.1467C80.7637 31.31 79.9339 30.8907 78.8928 30.8907C78.1874 30.8907 77.5461 31.1232 76.9728 31.5844C76.3994 32.0476 76.0222 32.6537 75.8468 33.4027C75.7582 33.7534 75.7148 34.0393 75.7148 34.2642V36.3836C75.7148 37.308 76.0015 38.0894 76.5767 38.726C77.1501 39.3626 77.897 39.6809 78.8155 39.6809C79.8924 39.6809 80.7317 39.2711 81.3314 38.4515C81.9331 37.632 82.233 36.5494 82.233 35.2076H82.2311Z" fill="white"/>
<path d="M99.9517 35.1047C99.9517 37.266 99.3594 38.9757 98.175 40.2317C97.1169 41.3486 95.8005 41.907 94.2294 41.907C92.5338 41.907 91.3155 41.3047 90.5742 40.1021H90.5214V46.7996H87.6603V33.0901C87.6603 31.7312 87.6245 30.336 87.5547 28.9047H90.0707L90.231 30.9193H90.2838C91.2362 29.4002 92.6847 28.6436 94.6274 28.6436C96.1456 28.6436 97.413 29.2363 98.4296 30.4218C99.4424 31.6092 99.9517 33.1702 99.9517 35.1047ZM97.0377 35.2076C97.0377 33.9707 96.7548 32.9491 96.189 32.1467C95.5704 31.31 94.7424 30.8907 93.6994 30.8907C92.9922 30.8907 92.3528 31.1232 91.7775 31.5844C91.2042 32.0476 90.8289 32.6537 90.6535 33.4027C90.5667 33.7534 90.5214 34.0393 90.5214 34.2642V36.3836C90.5214 37.308 90.8081 38.0894 91.3796 38.726C91.9529 39.3626 92.6998 39.6809 93.6202 39.6809C94.6971 39.6809 95.5364 39.2711 96.1362 38.4515C96.7378 37.632 97.0377 36.5494 97.0377 35.2076Z" fill="white"/>
<path d="M116.508 36.6712C116.508 38.1712 115.98 39.391 114.922 40.3326C113.759 41.3618 112.14 41.8764 110.058 41.8764C108.136 41.8764 106.597 41.5104 105.432 40.7786L106.094 38.4247C107.35 39.1738 108.727 39.5511 110.228 39.5511C111.305 39.5511 112.144 39.3091 112.746 38.8307C113.345 38.3504 113.645 37.7081 113.645 36.9038C113.645 36.189 113.398 35.5849 112.904 35.0969C112.412 34.6071 111.59 34.1535 110.441 33.7342C107.316 32.583 105.754 30.8962 105.754 28.6777C105.754 27.2292 106.301 26.0399 107.397 25.1155C108.489 24.1892 109.947 23.7261 111.769 23.7261C113.393 23.7261 114.743 24.0062 115.82 24.5628L115.105 26.8652C114.098 26.3239 112.961 26.0551 111.688 26.0551C110.681 26.0551 109.896 26.301 109.332 26.787C108.855 27.2235 108.617 27.7533 108.617 28.3842C108.617 29.0818 108.889 29.6574 109.438 30.111C109.915 30.5303 110.779 30.982 112.035 31.4718C113.57 32.0817 114.7 32.7965 115.426 33.616C116.148 34.4318 116.51 35.4534 116.51 36.6732L116.508 36.6712Z" fill="white"/>
<path d="M125.967 31.0225H122.814V37.1958C122.814 38.7663 123.368 39.5497 124.483 39.5497C124.994 39.5497 125.418 39.5059 125.754 39.4182L125.833 41.5624C125.269 41.7701 124.528 41.8749 123.61 41.8749C122.48 41.8749 121.597 41.5338 120.96 40.8553C120.326 40.1748 120.005 39.0313 120.005 37.4284V31.0206H118.127V28.9012H120.005V26.574L122.816 25.7373V28.9031H125.969V31.0263L125.967 31.0225Z" fill="white"/>
<path d="M140.192 35.1562C140.192 37.1098 139.626 38.7146 138.497 39.9687C137.312 41.2609 135.739 41.9051 133.78 41.9051C131.82 41.9051 130.387 41.2857 129.264 40.0487C128.142 38.8118 127.582 37.2489 127.582 35.3658C127.582 33.4827 128.159 31.7826 129.317 30.5266C130.471 29.2706 132.031 28.6436 133.991 28.6436C135.95 28.6436 137.401 29.263 138.547 30.5019C139.645 31.7045 140.192 33.2559 140.192 35.1562ZM137.225 35.2477C137.225 34.0755 136.973 33.0692 136.458 32.2305C135.858 31.2166 135 30.7096 133.889 30.7096C132.778 30.7096 131.865 31.2166 131.265 32.2305C130.752 33.0711 130.498 34.0927 130.498 35.301C130.498 36.5094 130.751 37.4795 131.265 38.3162C131.884 39.3302 132.748 39.8372 133.863 39.8372C134.977 39.8372 135.813 39.3207 136.431 38.2895C136.959 37.4357 137.223 36.4179 137.223 35.2477H137.225Z" fill="white"/>
<path d="M149.489 31.3851C149.206 31.3337 148.905 31.307 148.588 31.307C147.581 31.307 146.804 31.6825 146.257 32.4334C145.78 33.0967 145.542 33.9334 145.542 34.9435V41.6143H142.683L142.709 32.9042C142.709 31.4385 142.673 30.1043 142.602 28.9017H145.093L145.199 31.3337H145.278C145.58 30.497 146.057 29.8242 146.707 29.3191C147.345 28.8655 148.033 28.6387 148.775 28.6387C149.039 28.6387 149.278 28.6577 149.489 28.6901V31.3832V31.3851Z" fill="white"/>
<path d="M162.281 34.6561C162.281 35.163 162.247 35.5881 162.177 35.9368H153.595C153.629 37.1929 154.044 38.1535 154.84 38.8167C155.562 39.4095 156.498 39.7049 157.647 39.7049C158.918 39.7049 160.076 39.5048 161.119 39.1026L161.568 41.0638C160.349 41.588 158.912 41.8491 157.252 41.8491C155.257 41.8491 153.69 41.2697 152.549 40.109C151.411 38.9501 150.84 37.393 150.84 35.4394C150.84 33.4858 151.37 31.9248 152.432 30.6517C153.543 29.2927 155.044 28.6123 156.934 28.6123C158.823 28.6123 160.195 29.2927 161.147 30.6517C161.903 31.7323 162.282 33.0665 162.282 34.6522L162.281 34.6561ZM159.553 33.9242C159.572 33.0875 159.386 32.3632 158.999 31.7533C158.505 30.9681 157.743 30.5754 156.719 30.5754C155.783 30.5754 155.023 30.9585 154.442 31.7266C153.965 32.3365 153.682 33.0703 153.595 33.9242H159.553Z" fill="white"/>
<path d="M64.3489 13.9042C64.3489 15.4175 63.8887 16.5554 62.972 17.3216C62.1214 18.0268 60.9144 18.3813 59.349 18.3813C58.5738 18.3813 57.9099 18.347 57.3535 18.2802V10.0123C58.0778 9.896 58.8605 9.83691 59.7035 9.83691C61.1935 9.83691 62.3176 10.1571 63.0758 10.7975C63.9245 11.5218 64.3507 12.5567 64.3507 13.9042H64.3489ZM62.9098 13.9423C62.9098 12.9608 62.6476 12.2098 62.1214 11.6857C61.5952 11.1615 60.8276 10.9004 59.8167 10.9004C59.3867 10.9004 59.0208 10.929 58.7171 10.9881V17.2739C58.885 17.2987 59.1924 17.312 59.6394 17.312C60.6843 17.312 61.4896 17.0261 62.0573 16.4524C62.625 15.8788 62.9117 15.044 62.9117 13.9461L62.9098 13.9423Z" fill="white"/>
<path d="M71.9757 15.222C71.9757 16.154 71.706 16.9183 71.1666 17.5167C70.6007 18.1323 69.8539 18.4392 68.9184 18.4392C67.9829 18.4392 67.3002 18.1457 66.7645 17.5529C66.2308 16.9621 65.9648 16.2188 65.9648 15.3211C65.9648 14.4234 66.2402 13.6134 66.7909 13.0149C67.3435 12.4164 68.0848 12.1172 69.0202 12.1172C69.9557 12.1172 70.6441 12.4107 71.193 13.0015C71.7135 13.5752 71.9757 14.3147 71.9757 15.2201V15.222ZM70.5611 15.2658C70.5611 14.7074 70.4385 14.2271 70.1952 13.8268C69.9086 13.3427 69.5012 13.1026 68.9712 13.1026C68.4412 13.1026 68.0074 13.3446 67.7208 13.8268C67.4756 14.2271 67.3549 14.7131 67.3549 15.2906C67.3549 15.8681 67.4775 16.3293 67.7208 16.7296C68.0169 17.2137 68.428 17.4538 68.958 17.4538C69.488 17.4538 69.8878 17.208 70.182 16.7162C70.4348 16.3084 70.5611 15.8262 70.5611 15.2658Z" fill="white"/>
<path d="M82.2032 12.2451L80.2833 18.306H79.0328L78.2369 15.6739C78.0351 15.0164 77.871 14.3645 77.7428 13.7165H77.7182C77.5994 14.3817 77.4353 15.0335 77.2241 15.6739L76.3791 18.306H75.1155L73.3105 12.2451H74.7119L75.4059 15.1269C75.5738 15.8073 75.7115 16.4573 75.8228 17.0729H75.8473C75.9491 16.5659 76.117 15.9217 76.3546 15.1402L77.226 12.247H78.3369L79.1705 15.0773C79.3723 15.7673 79.5364 16.4325 79.6627 17.0729H79.7005C79.7929 16.4496 79.9324 15.7845 80.1173 15.0773L80.8623 12.247H82.2014L82.2032 12.2451Z" fill="white"/>
<path d="M89.2755 18.3033H87.9119V14.8326C87.9119 13.7634 87.5007 13.2278 86.6746 13.2278C86.2691 13.2278 85.9428 13.3746 85.6882 13.6681C85.4374 13.9616 85.3091 14.3104 85.3091 14.7068V18.3014H83.9455V13.9749C83.9455 13.4432 83.9285 12.8657 83.8965 12.2405H85.096L85.1601 13.1878H85.1979C85.3563 12.8943 85.5939 12.6503 85.9051 12.4559C86.2748 12.2291 86.6897 12.1147 87.1424 12.1147C87.7157 12.1147 88.191 12.2977 88.5701 12.6637C89.0416 13.1116 89.2774 13.7824 89.2774 14.6725V18.3033H89.2755Z" fill="white"/>
<path d="M93.0374 18.3031H91.6738V9.46143H93.0374V18.3031Z" fill="white"/>
<path d="M101.071 15.222C101.071 16.154 100.802 16.9183 100.262 17.5167C99.6964 18.1323 98.9477 18.4392 98.0141 18.4392C97.0805 18.4392 96.394 18.1457 95.8602 17.5529C95.3265 16.9621 95.0605 16.2188 95.0605 15.3211C95.0605 14.4234 95.3359 13.6134 95.8866 13.0149C96.4392 12.4164 97.1805 12.1172 98.1141 12.1172C99.0476 12.1172 99.7379 12.4107 100.289 13.0015C100.809 13.5752 101.071 14.3147 101.071 15.2201V15.222ZM99.6549 15.2658C99.6549 14.7074 99.5324 14.2271 99.2891 13.8268C99.0043 13.3427 98.595 13.1026 98.0669 13.1026C97.5388 13.1026 97.1012 13.3446 96.8165 13.8268C96.5713 14.2271 96.4506 14.7131 96.4506 15.2906C96.4506 15.8681 96.5732 16.3293 96.8165 16.7296C97.1126 17.2137 97.5237 17.4538 98.0537 17.4538C98.5837 17.4538 98.9816 17.208 99.2759 16.7162C99.5305 16.3084 99.6549 15.8262 99.6549 15.2658Z" fill="white"/>
<path d="M107.672 18.3039H106.446L106.345 17.6063H106.307C105.888 18.1628 105.29 18.4411 104.515 18.4411C103.936 18.4411 103.466 18.2581 103.114 17.8922C102.793 17.5606 102.633 17.147 102.633 16.6571C102.633 15.9157 102.946 15.3516 103.574 14.9609C104.202 14.5701 105.085 14.3776 106.22 14.3872V14.2747C106.22 13.4761 105.796 13.0778 104.945 13.0778C104.34 13.0778 103.806 13.2284 103.346 13.5257L103.068 12.6413C103.638 12.2925 104.343 12.1172 105.173 12.1172C106.776 12.1172 107.582 12.952 107.582 14.6235V16.8554C107.582 17.4615 107.612 17.9437 107.67 18.3001L107.672 18.3039ZM106.256 16.2207V15.2868C104.751 15.262 103.998 15.668 103.998 16.5085C103.998 16.8249 104.085 17.0612 104.26 17.2194C104.436 17.3776 104.66 17.4557 104.926 17.4557C105.226 17.4557 105.505 17.3623 105.76 17.1756C106.016 16.9888 106.173 16.7505 106.233 16.4589C106.248 16.3941 106.256 16.3141 106.256 16.2226V16.2207Z" fill="white"/>
<path d="M115.424 18.3036H114.214L114.149 17.3297H114.112C113.725 18.0711 113.067 18.4409 112.141 18.4409C111.402 18.4409 110.785 18.155 110.298 17.5813C109.812 17.0076 109.566 16.2643 109.566 15.3494C109.566 14.3679 109.83 13.575 110.362 12.967C110.877 12.4009 111.507 12.1188 112.256 12.1188C113.08 12.1188 113.657 12.3933 113.985 12.9422H114.012V9.46387H115.377V16.6721C115.377 17.263 115.392 17.8062 115.426 18.3055L115.424 18.3036ZM114.01 15.7478V14.7376C114.01 14.5623 113.997 14.4212 113.972 14.3126C113.895 13.9886 113.731 13.716 113.478 13.4968C113.223 13.2777 112.918 13.1671 112.565 13.1671C112.056 13.1671 111.658 13.3672 111.366 13.7656C111.075 14.1658 110.928 14.6766 110.928 15.2999C110.928 15.9231 111.068 16.3844 111.347 16.7598C111.643 17.1582 112.041 17.3583 112.539 17.3583C112.986 17.3583 113.344 17.1925 113.618 16.8589C113.88 16.5521 114.01 16.1823 114.01 15.7497V15.7478Z" fill="white"/>
<path d="M127.093 15.222C127.093 16.154 126.823 16.9183 126.284 17.5167C125.718 18.1323 124.971 18.4392 124.036 18.4392C123.1 18.4392 122.419 18.1457 121.882 17.5529C121.348 16.9621 121.082 16.2188 121.082 15.3211C121.082 14.4234 121.357 13.6134 121.908 13.0149C122.461 12.4164 123.202 12.1172 124.137 12.1172C125.073 12.1172 125.761 12.4107 126.308 13.0015C126.829 13.5752 127.091 14.3147 127.091 15.2201L127.093 15.222ZM125.678 15.2658C125.678 14.7074 125.556 14.2271 125.312 13.8268C125.024 13.3427 124.618 13.1026 124.088 13.1026C123.558 13.1026 123.125 13.3446 122.838 13.8268C122.593 14.2271 122.472 14.7131 122.472 15.2906C122.472 15.8681 122.595 16.3293 122.838 16.7296C123.134 17.2137 123.545 17.4538 124.075 17.4538C124.605 17.4538 125.007 17.208 125.299 16.7162C125.55 16.3084 125.678 15.8262 125.678 15.2658Z" fill="white"/>
<path d="M134.426 18.3033H133.062V14.8326C133.062 13.7634 132.651 13.2278 131.825 13.2278C131.42 13.2278 131.093 13.3746 130.841 13.6681C130.588 13.9616 130.461 14.3104 130.461 14.7068V18.3014H129.096V13.9749C129.096 13.4432 129.081 12.8657 129.047 12.2405H130.245L130.309 13.1878H130.346C130.507 12.8943 130.744 12.6503 131.054 12.4559C131.425 12.2291 131.838 12.1147 132.291 12.1147C132.862 12.1147 133.34 12.2977 133.717 12.6637C134.19 13.1116 134.424 13.7824 134.424 14.6725V18.3033H134.426Z" fill="white"/>
<path d="M143.607 13.2532H142.104V16.1978C142.104 16.9469 142.37 17.3204 142.9 17.3204C143.145 17.3204 143.347 17.2995 143.507 17.2575L143.543 18.2791C143.273 18.3801 142.919 18.4297 142.483 18.4297C141.944 18.4297 141.525 18.2677 141.221 17.9437C140.916 17.6197 140.765 17.0746 140.765 16.3103V13.2551H139.867V12.2468H140.765V11.1356L142.102 10.7373V12.2449H143.605V13.2551L143.607 13.2532Z" fill="white"/>
<path d="M150.832 18.3031H149.466V14.8572C149.466 13.7708 149.055 13.2276 148.231 13.2276C147.599 13.2276 147.165 13.5421 146.93 14.1729C146.89 14.3044 146.866 14.4664 146.866 14.657V18.3012H145.502V9.46143H146.866V13.1132H146.892C147.322 12.448 147.937 12.1164 148.735 12.1164C149.3 12.1164 149.766 12.2994 150.138 12.6653C150.6 13.1208 150.832 13.8013 150.832 14.6971V18.3012V18.3031Z" fill="white"/>
<path d="M158.281 14.9874C158.281 15.2294 158.262 15.4314 158.23 15.5973H154.139C154.158 16.1957 154.352 16.6531 154.731 16.9695C155.078 17.2516 155.523 17.3946 156.07 17.3946C156.676 17.3946 157.228 17.2993 157.724 17.1087L157.937 18.0445C157.355 18.2942 156.67 18.4181 155.878 18.4181C154.927 18.4181 154.178 18.1417 153.637 17.589C153.092 17.0362 152.824 16.2948 152.824 15.3628C152.824 14.4308 153.075 13.6875 153.582 13.0814C154.111 12.4334 154.825 12.1094 155.727 12.1094C156.628 12.1094 157.279 12.4334 157.734 13.0814C158.099 13.596 158.281 14.2326 158.281 14.9874ZM156.979 14.6386C156.99 14.2383 156.9 13.8933 156.715 13.6036C156.477 13.2301 156.117 13.0414 155.629 13.0414C155.184 13.0414 154.82 13.2244 154.542 13.5903C154.316 13.8819 154.182 14.2307 154.137 14.6386H156.977H156.979Z" fill="white"/>
<path d="M391.862 0.326172H219.166C215.592 0.326172 212.695 3.25391 212.695 6.86547V49.0802C212.695 52.6918 215.592 55.6195 219.166 55.6195H391.862C395.436 55.6195 398.333 52.6918 398.333 49.0802V6.86547C398.333 3.25391 395.436 0.326172 391.862 0.326172Z" fill="url(#paint1_linear_603_474)"/>
<path d="M391.554 1.58105H219.48C216.476 1.58105 214.041 4.04203 214.041 7.0778V48.8694C214.041 51.9052 216.476 54.3662 219.48 54.3662H391.554C394.558 54.3662 396.993 51.9052 396.993 48.8694V7.0778C396.993 4.04203 394.558 1.58105 391.554 1.58105Z" fill="black"/>
<path d="M227.096 10.6636C226.74 11.0314 226.512 11.5327 226.512 12.1102V43.0589C226.512 43.2324 226.532 43.3982 226.572 43.5564L243.62 26.8946L227.096 10.6636Z" fill="#05D4FB"/>
<path d="M249.498 21.149L229.666 10.2775C228.763 9.78197 227.729 10.0164 227.098 10.6644L243.621 26.8954L249.498 21.149Z" fill="#06EF79"/>
<path d="M256.112 24.7755L249.496 21.1484L243.619 26.8949L250.745 33.8973L256.044 31.1337C258.615 29.7919 258.653 26.1706 256.112 24.7755Z" fill="#FCCF02"/>
<path d="M226.572 43.5573C226.883 44.84 228.368 45.57 229.628 44.9124L250.748 33.8979L243.622 26.8955L226.574 43.5573H226.572Z" fill="#F9374A"/>
<path fill-rule="evenodd" clip-rule="evenodd" d="M269.139 33.0879C269.139 28.0638 273.339 23.9736 278.337 23.9736C281.1 23.9736 283.065 25.0638 284.549 26.4838L282.803 28.2391C281.743 27.2385 280.304 26.4628 278.335 26.4628C274.685 26.4628 271.832 29.417 271.832 33.084C271.832 36.7511 274.685 39.7091 278.333 39.7091C280.7 39.7091 282.047 38.7542 282.911 37.8851C283.618 37.1742 284.082 36.1526 284.261 34.7517H278.339V32.2683H286.675C286.764 32.7124 286.809 33.2461 286.809 33.8236C286.809 35.6876 286.3 38.0014 284.663 39.6481C283.069 41.3158 281.036 42.204 278.337 42.204C273.337 42.204 269.137 38.1176 269.137 33.0898L269.14 33.086L269.139 33.0879ZM293.548 30.4653C290.319 30.4653 287.684 32.9335 287.684 36.3318C287.684 39.7301 290.317 42.1983 293.548 42.1983C296.779 42.1983 299.408 39.7091 299.408 36.3299C299.408 32.9506 296.777 30.4634 293.548 30.4653ZM293.548 39.8902C291.781 39.8902 290.253 38.4245 290.253 36.3337C290.253 34.2429 291.779 32.7772 293.548 32.7772C295.317 32.7772 296.841 34.22 296.841 36.3337C296.841 38.4474 295.317 39.8902 293.548 39.8902ZM306.333 30.4653C303.104 30.4653 300.473 32.9335 300.473 36.3318C300.473 39.7301 303.104 42.1983 306.333 42.1983C309.562 42.1983 312.193 39.7091 312.193 36.3299C312.193 32.9506 309.564 30.4634 306.333 30.4653ZM306.333 39.8902C304.566 39.8902 303.038 38.4245 303.038 36.3337C303.038 34.2429 304.564 32.7772 306.333 32.7772C308.102 32.7772 309.628 34.22 309.628 36.3337C309.628 38.4474 308.101 39.8902 306.333 39.8902ZM322.025 30.8217V31.7766H321.937C321.363 31.0847 320.256 30.4634 318.864 30.4634C315.945 30.4634 313.264 33.044 313.264 36.3566C313.264 39.6691 315.943 42.2021 318.864 42.2021C320.256 42.2021 321.361 41.5807 321.937 40.8698H322.025V41.7123C322.025 43.9575 320.831 45.1582 318.908 45.1582C317.336 45.1582 316.363 44.0242 315.965 43.0712L313.73 44.0051C314.372 45.5604 316.077 47.472 318.906 47.472C321.91 47.472 324.454 45.6919 324.454 41.3578V30.8179H322.025V30.8217ZM319.085 39.8902C317.318 39.8902 315.831 38.3997 315.831 36.3566C315.831 34.3134 317.316 32.7791 319.085 32.7791C320.854 32.7791 322.202 34.2886 322.202 36.3566C322.204 38.3997 320.833 39.8902 319.085 39.8902ZM326.227 24.595H328.794V41.8438H326.227V24.595ZM335.829 39.8902C334.524 39.8902 333.594 39.2879 333.002 38.1138L340.808 34.8661L340.539 34.199C340.054 32.8896 338.571 30.4653 335.541 30.4653C332.51 30.4653 330.033 32.8439 330.033 36.3337C330.033 39.6214 332.51 42.2002 335.829 42.2002C338.507 42.2002 340.056 40.5573 340.695 39.5986L338.703 38.2663C338.038 39.246 337.131 39.8921 335.827 39.8902H335.829ZM335.629 32.7314C336.646 32.7314 337.508 33.2441 337.796 33.976L332.576 36.1545C332.512 33.8864 334.324 32.7314 335.631 32.7314H335.629Z" fill="white"/>
<path fill-rule="evenodd" clip-rule="evenodd" d="M352.676 24.5972H346.432V41.846H349.038V35.3124H352.678C355.568 35.3124 358.41 33.2463 358.41 29.9529C358.41 26.6594 355.571 24.5972 352.682 24.5972H352.676ZM352.744 32.9109H349.038V26.9968H352.744C354.693 26.9968 355.803 28.5939 355.803 29.9548C355.803 31.3156 354.693 32.9128 352.744 32.9128V32.9109ZM362.452 41.846V24.5972H359.845V41.846H362.452ZM374.16 41.8155V35.2037C374.16 32.1409 371.842 30.4332 368.853 30.4332C366.969 30.4332 365.015 31.2546 364.204 33.0748L366.518 34.0278C367.012 33.0748 367.933 32.7622 368.902 32.7622C370.249 32.7622 371.62 33.5608 371.641 34.9827V35.1618C371.169 34.895 370.16 34.4947 368.921 34.4947C366.428 34.4947 363.889 35.848 363.889 38.3771C363.889 40.6872 365.935 42.1719 368.227 42.1719C369.981 42.1719 370.946 41.3962 371.552 40.487H371.641V41.8193H374.16V41.8155ZM368.542 39.8867C367.687 39.8867 366.495 39.4654 366.495 38.4248C366.495 37.0925 367.98 36.5798 369.26 36.5798C370.407 36.5798 370.945 36.8238 371.644 37.1573C371.444 38.7069 370.118 39.8695 368.542 39.8886V39.8867ZM383.326 30.8105L380.337 38.2876H380.248L377.148 30.8105H374.339L378.99 41.2627L376.337 47.0759H379.056L386.223 30.8105H383.328H383.326Z" fill="white"/>
<path d="M310.812 18.5275C309.575 18.5275 308.53 18.1005 307.706 17.2581C306.887 16.4405 306.431 15.3121 306.452 14.159C306.452 12.9297 306.874 11.8891 307.706 11.0638C308.528 10.2214 309.571 9.79443 310.81 9.79443C312.05 9.79443 313.079 10.2214 313.917 11.0638C314.748 11.9157 315.171 12.9564 315.171 14.159C315.158 15.3922 314.735 16.4328 313.917 17.2543C313.094 18.1024 312.051 18.5275 310.812 18.5275ZM273.974 18.5275C272.763 18.5275 271.713 18.1063 270.853 17.2753C270 16.4462 269.566 15.3998 269.566 14.1629C269.566 12.9259 270 11.8795 270.853 11.0505C271.696 10.2176 272.746 9.79825 273.974 9.79825C274.574 9.79825 275.159 9.91641 275.717 10.1547C276.266 10.3872 276.713 10.7036 277.043 11.0905L277.124 11.1877L276.2 12.0835L276.103 11.9729C275.581 11.3592 274.883 11.06 273.959 11.06C273.133 11.06 272.414 11.3497 271.82 11.9215C271.224 12.4971 270.921 13.2518 270.921 14.1648C270.921 15.0777 271.224 15.8325 271.82 16.4081C272.414 16.9798 273.133 17.2695 273.959 17.2695C274.84 17.2695 275.579 16.9798 276.156 16.4081C276.498 16.0707 276.709 15.5999 276.784 15.0034H273.821V13.7436H278.057L278.074 13.8579C278.105 14.0695 278.137 14.2887 278.137 14.4907C278.137 15.6533 277.782 16.5929 277.079 17.2867C276.281 18.1082 275.236 18.5256 273.974 18.5256V18.5275ZM322.955 18.3483H321.648L317.647 12.0263L317.681 13.1641V18.3445H316.374V9.97359H317.864L317.906 10.0384L321.668 15.9926L321.634 14.8566V9.97359H322.955V18.3464V18.3483ZM300.997 18.3483H299.673V11.2353H297.378V9.9755H303.289V11.2353H300.994V18.3483H300.997ZM296.301 18.3483H294.981V9.9755H296.301V18.3483ZM288.883 18.3483H287.563V11.2353H285.268V9.9755H291.179V11.2353H288.883V18.3483ZM284.432 18.335H279.37V9.9755H284.432V11.2353H280.694V13.532H284.068V14.7785H280.694V17.0751H284.432V18.335ZM308.675 16.3909C309.266 16.9741 309.982 17.2657 310.814 17.2657C311.646 17.2657 312.37 16.9798 312.953 16.3909C313.532 15.8191 313.826 15.0663 313.826 14.161C313.826 13.2556 313.532 12.5009 312.957 11.931C312.366 11.3478 311.648 11.0562 310.818 11.0562C309.988 11.0562 309.262 11.3421 308.683 11.931C308.104 12.5028 307.81 13.2556 307.81 14.161C307.81 15.0663 308.1 15.821 308.675 16.3909Z" fill="white"/>
<defs>
<linearGradient id="paint0_linear_603_474" x1="0" y1="27.8497" x2="185.745" y2="27.8497" gradientUnits="userSpaceOnUse">
<stop stop-color="#CCCCCC"/>
<stop offset="0.51" stop-color="#B3B3B3"/>
<stop offset="1" stop-color="#E6E6E6"/>
</linearGradient>
<linearGradient id="paint1_linear_603_474" x1="212.695" y1="27.9738" x2="398.335" y2="27.9738" gradientUnits="userSpaceOnUse">
<stop stop-color="#CCCCCC"/>
<stop offset="0.51" stop-color="#B3B3B3"/>
<stop offset="1" stop-color="#E6E6E6"/>
</linearGradient>
</defs>
</svg>
