<svg width="267" height="267" viewBox="0 0 267 267" fill="none" xmlns="http://www.w3.org/2000/svg">
<circle cx="4.30645" cy="4.30645" r="3.80645" stroke="black"/>
<circle cx="30.1463" cy="4.30645" r="3.80645" stroke="black"/>
<circle cx="55.9842" cy="4.30645" r="3.80645" stroke="black"/>
<circle cx="81.8221" cy="4.30645" r="3.80645" stroke="black"/>
<circle cx="107.662" cy="4.30645" r="3.80645" stroke="black"/>
<circle cx="133.5" cy="4.30645" r="3.80645" stroke="black"/>
<circle cx="159.338" cy="4.30645" r="3.80645" stroke="black"/>
<circle cx="185.178" cy="4.30645" r="3.80645" stroke="black"/>
<circle cx="211.017" cy="4.30645" r="3.80645" stroke="black"/>
<circle cx="236.855" cy="4.30645" r="3.80645" stroke="black"/>
<circle cx="262.693" cy="4.30645" r="3.80645" stroke="black"/>
<circle cx="4.30645" cy="30.1453" r="3.80645" stroke="black"/>
<circle cx="30.1463" cy="30.1453" r="3.80645" stroke="black"/>
<circle cx="55.9842" cy="30.1453" r="3.80645" stroke="black"/>
<circle cx="81.8221" cy="30.1453" r="3.80645" stroke="black"/>
<circle cx="107.662" cy="30.1453" r="3.80645" stroke="black"/>
<circle cx="133.5" cy="30.1453" r="3.80645" stroke="black"/>
<circle cx="159.338" cy="30.1453" r="3.80645" stroke="black"/>
<circle cx="185.178" cy="30.1453" r="3.80645" stroke="black"/>
<circle cx="211.017" cy="30.1453" r="3.80645" stroke="black"/>
<circle cx="236.855" cy="30.1453" r="3.80645" stroke="black"/>
<circle cx="262.693" cy="30.1453" r="3.80645" stroke="black"/>
<circle cx="4.30645" cy="55.9837" r="3.80645" stroke="black"/>
<circle cx="30.1463" cy="55.9837" r="3.80645" stroke="black"/>
<circle cx="55.9842" cy="55.9837" r="3.80645" stroke="black"/>
<circle cx="81.8221" cy="55.9837" r="3.80645" stroke="black"/>
<circle cx="107.662" cy="55.9837" r="3.80645" stroke="black"/>
<circle cx="133.5" cy="55.9837" r="3.80645" stroke="black"/>
<circle cx="159.338" cy="55.9837" r="3.80645" stroke="black"/>
<circle cx="185.178" cy="55.9837" r="3.80645" stroke="black"/>
<circle cx="211.017" cy="55.9837" r="3.80645" stroke="black"/>
<circle cx="236.855" cy="55.9837" r="3.80645" stroke="black"/>
<circle cx="262.693" cy="55.9837" r="3.80645" stroke="black"/>
<circle cx="4.30645" cy="81.8226" r="3.80645" stroke="black"/>
<circle cx="30.1463" cy="81.8226" r="3.80645" stroke="black"/>
<circle cx="55.9842" cy="81.8226" r="3.80645" stroke="black"/>
<circle cx="81.8221" cy="81.8226" r="3.80645" stroke="black"/>
<circle cx="107.662" cy="81.8226" r="3.80645" stroke="black"/>
<circle cx="133.5" cy="81.8226" r="3.80645" stroke="black"/>
<circle cx="159.338" cy="81.8226" r="3.80645" stroke="black"/>
<circle cx="185.178" cy="81.8226" r="3.80645" stroke="black"/>
<circle cx="211.017" cy="81.8226" r="3.80645" stroke="black"/>
<circle cx="236.855" cy="81.8226" r="3.80645" stroke="black"/>
<circle cx="262.693" cy="81.8226" r="3.80645" stroke="black"/>
<circle cx="4.30645" cy="107.661" r="3.80645" stroke="black"/>
<circle cx="30.1463" cy="107.661" r="3.80645" stroke="black"/>
<circle cx="55.9842" cy="107.661" r="3.80645" stroke="black"/>
<circle cx="81.8221" cy="107.661" r="3.80645" stroke="black"/>
<circle cx="107.662" cy="107.661" r="3.80645" stroke="black"/>
<circle cx="133.5" cy="107.661" r="3.80645" stroke="black"/>
<circle cx="159.338" cy="107.661" r="3.80645" stroke="black"/>
<circle cx="185.178" cy="107.661" r="3.80645" stroke="black"/>
<circle cx="211.017" cy="107.661" r="3.80645" stroke="black"/>
<circle cx="236.855" cy="107.661" r="3.80645" stroke="black"/>
<circle cx="262.693" cy="107.661" r="3.80645" stroke="black"/>
<circle cx="4.30645" cy="133.5" r="3.80645" stroke="black"/>
<circle cx="30.1463" cy="133.5" r="3.80645" stroke="black"/>
<circle cx="55.9842" cy="133.5" r="3.80645" stroke="black"/>
<circle cx="81.8221" cy="133.5" r="3.80645" stroke="black"/>
<circle cx="107.662" cy="133.5" r="3.80645" stroke="black"/>
<circle cx="133.5" cy="133.5" r="3.80645" stroke="black"/>
<circle cx="159.338" cy="133.5" r="3.80645" stroke="black"/>
<circle cx="185.178" cy="133.5" r="3.80645" stroke="black"/>
<circle cx="211.017" cy="133.5" r="3.80645" stroke="black"/>
<circle cx="236.855" cy="133.5" r="3.80645" stroke="black"/>
<circle cx="262.693" cy="133.5" r="3.80645" stroke="black"/>
<circle cx="4.30645" cy="159.339" r="3.80645" stroke="black"/>
<circle cx="30.1463" cy="159.339" r="3.80645" stroke="black"/>
<circle cx="55.9842" cy="159.339" r="3.80645" stroke="black"/>
<circle cx="81.8221" cy="159.339" r="3.80645" stroke="black"/>
<circle cx="107.662" cy="159.339" r="3.80645" stroke="black"/>
<circle cx="133.5" cy="159.339" r="3.80645" stroke="black"/>
<circle cx="159.338" cy="159.339" r="3.80645" stroke="black"/>
<circle cx="185.178" cy="159.339" r="3.80645" stroke="black"/>
<circle cx="211.017" cy="159.339" r="3.80645" stroke="black"/>
<circle cx="236.855" cy="159.339" r="3.80645" stroke="black"/>
<circle cx="262.693" cy="159.339" r="3.80645" stroke="black"/>
<circle cx="4.30645" cy="185.177" r="3.80645" stroke="black"/>
<circle cx="30.1463" cy="185.177" r="3.80645" stroke="black"/>
<circle cx="55.9842" cy="185.177" r="3.80645" stroke="black"/>
<circle cx="81.8221" cy="185.177" r="3.80645" stroke="black"/>
<circle cx="107.662" cy="185.177" r="3.80645" stroke="black"/>
<circle cx="133.5" cy="185.177" r="3.80645" stroke="black"/>
<circle cx="159.338" cy="185.177" r="3.80645" stroke="black"/>
<circle cx="185.178" cy="185.177" r="3.80645" stroke="black"/>
<circle cx="211.017" cy="185.177" r="3.80645" stroke="black"/>
<circle cx="236.855" cy="185.177" r="3.80645" stroke="black"/>
<circle cx="262.693" cy="185.177" r="3.80645" stroke="black"/>
<circle cx="4.30645" cy="211.016" r="3.80645" stroke="black"/>
<circle cx="30.1463" cy="211.016" r="3.80645" stroke="black"/>
<circle cx="55.9842" cy="211.016" r="3.80645" stroke="black"/>
<circle cx="81.8221" cy="211.016" r="3.80645" stroke="black"/>
<circle cx="107.662" cy="211.016" r="3.80645" stroke="black"/>
<circle cx="133.5" cy="211.016" r="3.80645" stroke="black"/>
<circle cx="159.338" cy="211.016" r="3.80645" stroke="black"/>
<circle cx="185.178" cy="211.016" r="3.80645" stroke="black"/>
<circle cx="211.017" cy="211.016" r="3.80645" stroke="black"/>
<circle cx="236.855" cy="211.016" r="3.80645" stroke="black"/>
<circle cx="262.693" cy="211.016" r="3.80645" stroke="black"/>
<circle cx="4.30645" cy="236.855" r="3.80645" stroke="black"/>
<circle cx="30.1463" cy="236.855" r="3.80645" stroke="black"/>
<circle cx="55.9842" cy="236.855" r="3.80645" stroke="black"/>
<circle cx="81.8221" cy="236.855" r="3.80645" stroke="black"/>
<circle cx="107.662" cy="236.855" r="3.80645" stroke="black"/>
<circle cx="133.5" cy="236.855" r="3.80645" stroke="black"/>
<circle cx="159.338" cy="236.855" r="3.80645" stroke="black"/>
<circle cx="185.178" cy="236.855" r="3.80645" stroke="black"/>
<circle cx="211.017" cy="236.855" r="3.80645" stroke="black"/>
<circle cx="236.855" cy="236.855" r="3.80645" stroke="black"/>
<circle cx="262.693" cy="236.855" r="3.80645" stroke="black"/>
<circle cx="4.30645" cy="262.694" r="3.80645" stroke="black"/>
<circle cx="30.1463" cy="262.694" r="3.80645" stroke="black"/>
<circle cx="55.9842" cy="262.694" r="3.80645" stroke="black"/>
<circle cx="81.8221" cy="262.694" r="3.80645" stroke="black"/>
<circle cx="107.662" cy="262.694" r="3.80645" stroke="black"/>
<circle cx="133.5" cy="262.694" r="3.80645" stroke="black"/>
<circle cx="159.338" cy="262.694" r="3.80645" stroke="black"/>
<circle cx="185.178" cy="262.694" r="3.80645" stroke="black"/>
<circle cx="211.017" cy="262.694" r="3.80645" stroke="black"/>
<circle cx="236.855" cy="262.694" r="3.80645" stroke="black"/>
<circle cx="262.693" cy="262.694" r="3.80645" stroke="black"/>
</svg>
