<svg width="363" height="363" viewBox="0 0 363 363" fill="none" xmlns="http://www.w3.org/2000/svg">
<circle cx="5.8418" cy="5.8418" r="5.3418" stroke="black"/>
<circle cx="40.8926" cy="5.8418" r="5.3418" stroke="black"/>
<circle cx="75.9434" cy="5.8418" r="5.3418" stroke="black"/>
<circle cx="110.994" cy="5.8418" r="5.3418" stroke="black"/>
<circle cx="146.045" cy="5.8418" r="5.3418" stroke="black"/>
<circle cx="181.096" cy="5.8418" r="5.3418" stroke="black"/>
<circle cx="216.146" cy="5.8418" r="5.3418" stroke="black"/>
<circle cx="251.197" cy="5.8418" r="5.3418" stroke="black"/>
<circle cx="286.25" cy="5.8418" r="5.3418" stroke="black"/>
<circle cx="321.299" cy="5.8418" r="5.3418" stroke="black"/>
<circle cx="356.35" cy="5.8418" r="5.3418" stroke="black"/>
<circle cx="5.8418" cy="40.8914" r="5.3418" stroke="black"/>
<circle cx="40.8926" cy="40.8914" r="5.3418" stroke="black"/>
<circle cx="75.9434" cy="40.8914" r="5.3418" stroke="black"/>
<circle cx="110.994" cy="40.8914" r="5.3418" stroke="black"/>
<circle cx="146.045" cy="40.8914" r="5.3418" stroke="black"/>
<circle cx="181.096" cy="40.8914" r="5.3418" stroke="black"/>
<circle cx="216.146" cy="40.8914" r="5.3418" stroke="black"/>
<circle cx="251.197" cy="40.8914" r="5.3418" stroke="black"/>
<circle cx="286.25" cy="40.8914" r="5.3418" stroke="black"/>
<circle cx="321.299" cy="40.8914" r="5.3418" stroke="black"/>
<circle cx="356.35" cy="40.8914" r="5.3418" stroke="black"/>
<circle cx="5.8418" cy="75.9431" r="5.3418" stroke="black"/>
<circle cx="40.8926" cy="75.9431" r="5.3418" stroke="black"/>
<circle cx="75.9434" cy="75.9431" r="5.3418" stroke="black"/>
<circle cx="110.994" cy="75.9431" r="5.3418" stroke="black"/>
<circle cx="146.045" cy="75.9431" r="5.3418" stroke="black"/>
<circle cx="181.096" cy="75.9431" r="5.3418" stroke="black"/>
<circle cx="216.146" cy="75.9431" r="5.3418" stroke="black"/>
<circle cx="251.197" cy="75.9431" r="5.3418" stroke="black"/>
<circle cx="286.25" cy="75.9431" r="5.3418" stroke="black"/>
<circle cx="321.299" cy="75.9431" r="5.3418" stroke="black"/>
<circle cx="356.35" cy="75.9431" r="5.3418" stroke="black"/>
<circle cx="5.8418" cy="110.993" r="5.3418" stroke="black"/>
<circle cx="40.8926" cy="110.993" r="5.3418" stroke="black"/>
<circle cx="75.9434" cy="110.993" r="5.3418" stroke="black"/>
<circle cx="110.994" cy="110.993" r="5.3418" stroke="black"/>
<circle cx="146.045" cy="110.993" r="5.3418" stroke="black"/>
<circle cx="181.096" cy="110.993" r="5.3418" stroke="black"/>
<circle cx="216.146" cy="110.993" r="5.3418" stroke="black"/>
<circle cx="251.197" cy="110.993" r="5.3418" stroke="black"/>
<circle cx="286.25" cy="110.993" r="5.3418" stroke="black"/>
<circle cx="321.299" cy="110.993" r="5.3418" stroke="black"/>
<circle cx="356.35" cy="110.993" r="5.3418" stroke="black"/>
<circle cx="5.8418" cy="146.046" r="5.3418" stroke="black"/>
<circle cx="40.8926" cy="146.046" r="5.3418" stroke="black"/>
<circle cx="75.9434" cy="146.046" r="5.3418" stroke="black"/>
<circle cx="110.994" cy="146.046" r="5.3418" stroke="black"/>
<circle cx="146.045" cy="146.046" r="5.3418" stroke="black"/>
<circle cx="181.096" cy="146.046" r="5.3418" stroke="black"/>
<circle cx="216.146" cy="146.046" r="5.3418" stroke="black"/>
<circle cx="251.197" cy="146.046" r="5.3418" stroke="black"/>
<circle cx="286.25" cy="146.046" r="5.3418" stroke="black"/>
<circle cx="321.299" cy="146.046" r="5.3418" stroke="black"/>
<circle cx="356.35" cy="146.046" r="5.3418" stroke="black"/>
<circle cx="5.8418" cy="181.098" r="5.3418" stroke="black"/>
<circle cx="40.8926" cy="181.098" r="5.3418" stroke="black"/>
<circle cx="75.9434" cy="181.098" r="5.3418" stroke="black"/>
<circle cx="110.994" cy="181.098" r="5.3418" stroke="black"/>
<circle cx="146.045" cy="181.098" r="5.3418" stroke="black"/>
<circle cx="181.096" cy="181.098" r="5.3418" stroke="black"/>
<circle cx="216.146" cy="181.098" r="5.3418" stroke="black"/>
<circle cx="251.197" cy="181.098" r="5.3418" stroke="black"/>
<circle cx="286.25" cy="181.098" r="5.3418" stroke="black"/>
<circle cx="321.299" cy="181.098" r="5.3418" stroke="black"/>
<circle cx="356.35" cy="181.098" r="5.3418" stroke="black"/>
<circle cx="5.8418" cy="216.146" r="5.3418" stroke="black"/>
<circle cx="40.8926" cy="216.146" r="5.3418" stroke="black"/>
<circle cx="75.9434" cy="216.146" r="5.3418" stroke="black"/>
<circle cx="110.994" cy="216.146" r="5.3418" stroke="black"/>
<circle cx="146.045" cy="216.146" r="5.3418" stroke="black"/>
<circle cx="181.096" cy="216.146" r="5.3418" stroke="black"/>
<circle cx="216.146" cy="216.146" r="5.3418" stroke="black"/>
<circle cx="251.197" cy="216.146" r="5.3418" stroke="black"/>
<circle cx="286.25" cy="216.146" r="5.3418" stroke="black"/>
<circle cx="321.299" cy="216.146" r="5.3418" stroke="black"/>
<circle cx="356.35" cy="216.146" r="5.3418" stroke="black"/>
<circle cx="5.8418" cy="251.199" r="5.3418" stroke="black"/>
<circle cx="40.8926" cy="251.199" r="5.3418" stroke="black"/>
<circle cx="75.9434" cy="251.199" r="5.3418" stroke="black"/>
<circle cx="110.994" cy="251.199" r="5.3418" stroke="black"/>
<circle cx="146.045" cy="251.199" r="5.3418" stroke="black"/>
<circle cx="181.096" cy="251.199" r="5.3418" stroke="black"/>
<circle cx="216.146" cy="251.199" r="5.3418" stroke="black"/>
<circle cx="251.197" cy="251.199" r="5.3418" stroke="black"/>
<circle cx="286.25" cy="251.199" r="5.3418" stroke="black"/>
<circle cx="321.299" cy="251.199" r="5.3418" stroke="black"/>
<circle cx="356.35" cy="251.199" r="5.3418" stroke="black"/>
<circle cx="5.8418" cy="286.249" r="5.3418" stroke="black"/>
<circle cx="40.8926" cy="286.249" r="5.3418" stroke="black"/>
<circle cx="75.9434" cy="286.249" r="5.3418" stroke="black"/>
<circle cx="110.994" cy="286.249" r="5.3418" stroke="black"/>
<circle cx="146.045" cy="286.249" r="5.3418" stroke="black"/>
<circle cx="181.096" cy="286.249" r="5.3418" stroke="black"/>
<circle cx="216.146" cy="286.249" r="5.3418" stroke="black"/>
<circle cx="251.197" cy="286.249" r="5.3418" stroke="black"/>
<circle cx="286.25" cy="286.249" r="5.3418" stroke="black"/>
<circle cx="321.299" cy="286.249" r="5.3418" stroke="black"/>
<circle cx="356.35" cy="286.249" r="5.3418" stroke="black"/>
<circle cx="5.8418" cy="321.3" r="5.3418" stroke="black"/>
<circle cx="40.8926" cy="321.3" r="5.3418" stroke="black"/>
<circle cx="75.9434" cy="321.3" r="5.3418" stroke="black"/>
<circle cx="110.994" cy="321.3" r="5.3418" stroke="black"/>
<circle cx="146.045" cy="321.3" r="5.3418" stroke="black"/>
<circle cx="181.096" cy="321.3" r="5.3418" stroke="black"/>
<circle cx="216.146" cy="321.3" r="5.3418" stroke="black"/>
<circle cx="251.197" cy="321.3" r="5.3418" stroke="black"/>
<circle cx="286.25" cy="321.3" r="5.3418" stroke="black"/>
<circle cx="321.299" cy="321.3" r="5.3418" stroke="black"/>
<circle cx="356.35" cy="321.3" r="5.3418" stroke="black"/>
<circle cx="5.8418" cy="356.35" r="5.3418" stroke="black"/>
<circle cx="40.8926" cy="356.35" r="5.3418" stroke="black"/>
<circle cx="75.9434" cy="356.35" r="5.3418" stroke="black"/>
<circle cx="110.994" cy="356.35" r="5.3418" stroke="black"/>
<circle cx="146.045" cy="356.35" r="5.3418" stroke="black"/>
<circle cx="181.096" cy="356.35" r="5.3418" stroke="black"/>
<circle cx="216.146" cy="356.35" r="5.3418" stroke="black"/>
<circle cx="251.197" cy="356.35" r="5.3418" stroke="black"/>
<circle cx="286.25" cy="356.35" r="5.3418" stroke="black"/>
<circle cx="321.299" cy="356.35" r="5.3418" stroke="black"/>
<circle cx="356.35" cy="356.35" r="5.3418" stroke="black"/>
</svg>
